# xmcd
#
# Track frame offsets: 
#        150
#        13693
#        22679
#        36006
#        48164
#        58070
#        66958
#        80859
#        93141
#        106747
#        123306
#        135723
#        146696
#        159055
#        171207
#        183638
#        195891
#        207168
#
# Disc length: 2909 seconds
#
# Revision: 1
# Processed by: cddbd v1.5.2PL0 Copyright (c) Steve Scherf et al.
# Submitted via: ExactAudioCopy v1.0b6
#
DISCID=e60b5b12
DTITLE=Various Artist - The Essential Guide To Bluegrass [CD1]
DYEAR=2007
DGENRE=Bluegrass
TTITLE0=Orange Blossom Special - The Rouse Brothers
TTITLE1=Blue Moon Of Kentucky - The Osborne Brothers
TTITLE2=Man Of Constant Sorrow - The Stanley Brothers
TTITLE3=Foggy Mountain Breakdown - Flatt and Scruggs
TTITLE4=Y'all Come - Bill Monroe
TTITLE5=Feudin' Banjos - Reno and Smith
TTITLE6=Cotton Eyed Joe - John Carson
TTITLE7=Footprints In The Snow - Cliff Carlisle
TTITLE8=Earl's Breakdown - Flatt and Scruggs
TTITLE9=Sally Goodin - Ernest Stoneman
TTITLE10=Uncle Penn - Bill Monroe
TTITLE11=Molly and Tenbrooks - The Stanley Brothers
TTITLE12=Are You From Dixie - The Blue Sky Boys
TTITLE13=Poor Ellen Smith - Molly O'Day
TTITLE14=Muleskinner Blues - Bill Monroe
TTITLE15=Don't Get Above Your Raisin' - Flatt and Scruggs
TTITLE16=Roll In My Sweet Baby's Arms - The Monroe Brothers
TTITLE17=Will The Circle Be Unbroken - The Monroe Brothers
EXTD=
EXTT0=
EXTT1=
EXTT2=
EXTT3=
EXTT4=
EXTT5=
EXTT6=
EXTT7=
EXTT8=
EXTT9=
EXTT10=
EXTT11=
EXTT12=
EXTT13=
EXTT14=
EXTT15=
EXTT16=
EXTT17=
PLAYORDER=
